<svg width="36" height="24" viewBox="0 0 36 24" fill="none" xmlns="http://www.w3.org/2000/svg">
<path fill-rule="evenodd" clip-rule="evenodd" d="M1.71176 0.0177002C0.766383 0.0177002 0 0.784084 0 1.72947V22.2706C0 23.216 0.766384 23.9824 1.71177 23.9824H34.2353C35.1807 23.9824 35.9471 23.216 35.9471 22.2706V1.72946C35.9471 0.784083 35.1807 0.0177002 34.2353 0.0177002H1.71176ZM17.7501 17.3356C17.1031 17.3356 16.5023 17.2586 15.9477 17.1045C15.3931 16.9505 14.9103 16.7245 14.4995 16.4267C14.0887 16.1186 13.7652 15.7488 13.5289 15.3175C13.303 14.8758 13.19 14.3777 13.19 13.8231C13.19 13.2993 13.2978 12.8114 13.5135 12.3595C13.7292 11.8974 14.1246 11.4865 14.6998 11.1271C14.3095 10.86 14.0117 10.5519 13.8062 10.2027C13.6008 9.84324 13.4981 9.37079 13.4981 8.78537C13.4981 8.36427 13.5957 7.97399 13.7908 7.61452C13.9962 7.24478 14.2838 6.92639 14.6536 6.65936C15.0233 6.38205 15.4701 6.16637 15.9939 6.01231C16.5177 5.85825 17.1031 5.78122 17.7501 5.78122C18.3972 5.78122 18.9826 5.85825 19.5064 6.01231C20.0302 6.16637 20.4719 6.38205 20.8313 6.65936C21.2011 6.92639 21.4835 7.24478 21.6786 7.61452C21.8841 7.97399 21.9868 8.36427 21.9868 8.78537C21.9868 9.37079 21.8841 9.84324 21.6786 10.2027C21.4732 10.5519 21.1805 10.86 20.8005 11.1271C21.3757 11.4865 21.7711 11.8974 21.9868 12.3595C22.2024 12.8114 22.3103 13.2993 22.3103 13.8231C22.3103 14.3777 22.1922 14.8758 21.956 15.3175C21.73 15.7488 21.4116 16.1186 21.0008 16.4267C20.59 16.7245 20.1072 16.9505 19.5526 17.1045C18.998 17.2586 18.3972 17.3356 17.7501 17.3356ZM17.7501 15.4561C18.0685 15.4561 18.3458 15.4099 18.5821 15.3175C18.8286 15.225 19.034 15.1018 19.1983 14.9477C19.3626 14.7834 19.4859 14.5985 19.568 14.3931C19.6605 14.1877 19.7067 13.9669 19.7067 13.7307C19.7067 13.2685 19.5372 12.8782 19.1983 12.5598C18.8696 12.2311 18.3869 12.0668 17.7501 12.0668C17.1134 12.0668 16.6255 12.2311 16.2866 12.5598C15.9579 12.8782 15.7936 13.2685 15.7936 13.7307C15.7936 13.9669 15.8347 14.1877 15.9168 14.3931C16.0093 14.5985 16.1377 14.7834 16.302 14.9477C16.4663 15.1018 16.6666 15.225 16.9028 15.3175C17.1493 15.4099 17.4318 15.4561 17.7501 15.4561ZM17.7501 10.403C18.3253 10.403 18.7567 10.2746 19.0442 10.0178C19.3318 9.7508 19.4756 9.42214 19.4756 9.03186C19.4756 8.63131 19.3318 8.30265 19.0442 8.04588C18.7567 7.78912 18.3253 7.66074 17.7501 7.66074C17.175 7.66074 16.7436 7.78912 16.4561 8.04588C16.1685 8.30265 16.0247 8.63131 16.0247 9.03186C16.0247 9.42214 16.1685 9.7508 16.4561 10.0178C16.7436 10.2746 17.175 10.403 17.7501 10.403ZM8.79873 17.1354V9.63269H6.25676V7.76858C6.71894 7.75831 7.11949 7.71723 7.45842 7.64533C7.80762 7.56317 8.10546 7.45019 8.35196 7.3064C8.59845 7.16261 8.80387 6.98288 8.96819 6.7672C9.13252 6.54124 9.27631 6.27421 9.39956 5.96609H11.3253V17.1354H8.79873ZM26.4671 15.4236V13.0271H23.9269V11.3616H26.4671V8.97708H28.3244V11.3616H30.8527V13.0271H28.3244V15.4236H26.4671Z" fill="white"/>
</svg>
