<svg width="133" height="21" viewBox="0 0 133 21" fill="none" xmlns="http://www.w3.org/2000/svg">
<g opacity="0.8" clip-path="url(#clip0_62_196)">
<path d="M96.6458 10.4908V20.9816H98.8841H101.122L101.195 16.9338C101.249 13.1274 101.267 12.8489 101.682 11.9948C102.693 9.87808 105.437 9.93378 106.032 12.0876C106.141 12.4404 106.213 14.5386 106.213 16.7481V20.7773L106.808 20.8887C107.115 20.9444 108.162 20.9816 109.101 20.9444L110.816 20.8887V15.8754C110.798 12.5333 110.726 10.6022 110.581 10.1009C110.22 8.83829 109.643 8.11415 108.469 7.51998C107.531 7.03722 107.188 6.96295 105.942 6.96295C104.173 6.96295 103.234 7.39001 101.953 8.72688L101.068 9.65527L101.122 4.82766L101.177 6.10352e-05H98.9021H96.6458V10.4908Z" fill="white"/>
<path d="M39.4392 0.687055C38.6269 1.11411 38.0854 2.32101 38.2478 3.3608C38.4825 4.77195 39.7822 5.73747 41.1721 5.51466C42.0927 5.34755 42.6523 4.90192 43.0494 3.99211C43.5007 2.95231 43.3021 1.85682 42.5079 1.05841C41.8219 0.352836 40.3959 0.167159 39.4392 0.687055Z" fill="white"/>
<path d="M1.15527 8.07618L2.31053 9.28308H10.2169H18.1233V8.07618V6.86928H9.06163H0L1.15527 8.07618Z" fill="white"/>
<path d="M26.3361 7.05567C24.531 7.50129 23.0869 8.80103 22.4371 10.5464C21.8956 12.0132 21.7692 14.7241 22.1663 16.3024C22.8884 19.2361 24.7476 20.8329 27.4192 20.8515C28.9716 20.87 30.1449 20.3873 31.264 19.2546C32.0763 18.4191 32.0402 18.4005 32.1124 19.8674C32.1305 20.2202 32.1666 20.6287 32.1847 20.7401C32.2027 20.9257 32.7262 20.9814 34.1883 20.9814H36.1739V14.2042V7.42702H34.0981H32.0222V8.35541V9.26522L31.1377 8.35541C29.8922 7.07423 28.1051 6.59147 26.3361 7.05567ZM30.8308 10.9363C31.589 11.3634 32.0583 12.1061 32.2027 13.0902C32.5818 15.6339 30.9391 17.5464 28.7008 17.1936C26.8235 16.878 25.8307 14.8541 26.4264 12.5888C26.9318 10.7692 29.134 9.93366 30.8308 10.9363Z" fill="white"/>
<path d="M60.7047 7.11121C58.1415 7.85392 56.4627 9.89637 56.0295 12.7558C55.5421 15.9309 56.896 18.9017 59.4231 20.22C60.9214 20.9999 63.1777 21.1113 65.1092 20.48L65.9576 20.2014V18.2704C65.9576 17.212 65.9395 16.3394 65.9215 16.3394C65.8854 16.3394 65.4702 16.5436 64.9828 16.8036C63.9359 17.3606 63.2319 17.3792 62.2571 16.915C60.7589 16.2094 60.1091 14.7611 60.5242 12.96C61.0297 10.6948 62.9431 9.80353 64.9828 10.8619C65.4702 11.1218 65.8854 11.3261 65.9215 11.3261C65.9395 11.3261 65.9576 10.4905 65.9576 9.46931V7.61254L65.2897 7.31546C64.3872 6.92554 61.7698 6.79556 60.7047 7.11121Z" fill="white"/>
<path d="M71.4642 7.12994C70.2187 7.53843 69.5869 7.96548 68.8649 8.91244C67.7818 10.3236 67.493 11.4005 67.511 13.9257C67.511 15.6896 67.5832 16.2467 67.9262 17.1379C68.5219 18.6976 69.3342 19.6817 70.5256 20.313C71.392 20.7586 71.7711 20.8515 72.8722 20.8515C74.4968 20.8515 75.6521 20.3687 76.8434 19.1618L77.6918 18.3077V19.6446V20.9814H79.6774H81.6631V14.1114V7.24134H79.6774H77.6918V8.13259C77.6918 8.63392 77.6557 9.07955 77.6016 9.13525C77.5474 9.17239 77.0781 8.78246 76.5546 8.26257C75.8687 7.57556 75.3632 7.24134 74.7676 7.0928C73.7025 6.81429 72.3848 6.83286 71.4642 7.12994ZM76.4644 10.8992C77.5655 11.5862 78.0709 13.2201 77.6918 14.8727C76.8254 18.5305 71.735 17.6578 71.735 13.8329C71.735 12.9788 72.078 11.939 72.5112 11.4191C73.3415 10.4164 75.2369 10.175 76.4644 10.8992Z" fill="white"/>
<path d="M87.5287 7.11146C85.3807 7.85417 84.3698 9.0982 84.3698 11.0292C84.3698 13.1088 85.489 14.1672 88.6479 15.0584C90.4169 15.5598 90.8682 15.8568 90.8682 16.5438C90.8682 17.2866 90.2905 17.6393 89.027 17.6393C87.7995 17.6393 86.554 17.2494 85.4709 16.4881C85.0377 16.1911 84.6586 15.9868 84.6045 16.024C84.5684 16.0797 84.3517 16.8409 84.1171 17.7322L83.7019 19.3476L84.8391 19.9046C87.9981 21.4272 92.0956 21.1672 93.7924 19.3661C94.6047 18.4935 94.7672 18.1407 94.9297 17.0637C95.1643 15.4484 94.4242 13.9072 93.0523 13.2017C92.6913 12.9974 91.6805 12.6261 90.796 12.3475C88.9367 11.7348 88.1425 11.1592 88.4493 10.6393C89.0992 9.52526 91.2472 9.71094 93.5939 11.0849C93.648 11.1221 93.8827 10.4722 94.1174 9.63667C94.6047 7.90987 94.6589 8.00271 92.8538 7.40854C91.3736 6.90721 88.5576 6.75867 87.5287 7.11146Z" fill="white"/>
<path d="M114.877 8.07618V9.28308H122.783H130.689L131.845 8.07618L133 6.86928H123.938H114.877V8.07618Z" fill="white"/>
<path d="M52.7783 7.22276C51.605 7.59412 50.7927 8.28112 49.6735 9.87795C49.3667 10.2864 49.3667 10.2679 49.3486 8.85672V7.42701H47.1825H45.0164V14.2042V21L47.3269 20.9443L49.6194 20.8886V17.6392C49.6374 15.5597 49.7277 14.0928 49.8721 13.5729C50.3414 11.9204 51.7855 11.0477 53.8433 11.1777L54.8542 11.2334L54.9805 10.0265C55.0527 9.35805 55.143 8.42966 55.1971 7.92834L55.2874 7.05565L54.2585 7.07422C53.6989 7.07422 53.031 7.14849 52.7783 7.22276Z" fill="white"/>
<path d="M38.5183 14.2042V20.9814H40.7747H43.0311V14.2042V7.42702H40.7747H38.5183V14.2042Z" fill="white"/>
<path d="M6.8382 13.9248L7.90322 15.0388H13.0117H18.1201V13.9248V12.8107H11.9467H5.77319L6.8382 13.9248Z" fill="white"/>
<path d="M114.877 13.9251V15.0392H119.985H125.094L126.159 13.9251L127.224 12.8111H121.05H114.877V13.9251Z" fill="white"/>
<path d="M12.5108 19.756L13.648 20.9258L15.8321 20.9072L18.0344 20.8886L18.0885 19.7189L18.1427 18.5677H14.7491H11.3735L12.5108 19.756Z" fill="white"/>
<path d="M114.912 19.7187L114.966 20.8885L117.132 20.9442L119.298 20.9999L120.471 19.7744L121.627 18.5675H118.251H114.857L114.912 19.7187Z" fill="white"/>
</g>
<defs>
<clipPath id="clip0_62_196">
<rect width="133" height="21" fill="white"/>
</clipPath>
</defs>
</svg>
