<svg width="51" height="60" viewBox="0 0 51 60" fill="none" xmlns="http://www.w3.org/2000/svg">
<g filter="url(#filter0_d_62_258)">
<path d="M45.8799 4.39099C46.4452 5.4404 46.9258 6.90407 47.3216 8.78198C47.7738 10.6047 48 12.2616 48 13.7529C48 14.8576 47.8587 15.7689 47.576 16.4869C47.4629 16.7078 47.2933 17.0669 47.0671 17.564C46.841 18.0058 46.6148 18.3096 46.3887 18.4753C46.1625 18.5858 45.7951 18.6686 45.2862 18.7238C45.0601 18.7791 44.4947 18.641 43.5901 18.3096C42.6855 17.9782 41.894 17.6192 41.2155 17.2326C40.9329 16.9564 40.6502 16.7355 40.3675 16.5698C40.1413 16.4041 39.9717 16.2936 39.8587 16.2384C39.8587 16.0727 39.8869 15.7413 39.9435 15.2442C40.0565 14.6919 40.1979 14.1672 40.3675 13.6701C41.0459 12.0131 41.3852 10.6047 41.3852 9.44477C41.3852 7.67733 40.6502 6.60029 39.1802 6.21366C37.7668 6.15843 36.1555 6.60029 34.3463 7.53925C32.5936 8.42297 30.8127 9.91424 29.0035 12.0131C25.6678 15.7689 23.1519 18.9724 21.4558 21.6236L29.3428 21.7064C32.3958 21.8169 34.5724 22.452 35.8728 23.6119C36.3816 24.109 36.636 24.6613 36.636 25.2689C36.636 25.9317 36.3534 26.4564 35.788 26.843C35.2791 27.2297 34.6007 27.3677 33.7527 27.2573C33.47 27.3125 32.424 27.3401 30.6148 27.3401L27.1378 27.423C26.629 27.4782 23.6042 27.4506 18.0636 27.3401L17.0459 29.4942C16.7067 30.3779 16.3958 31.1512 16.1131 31.814C15.8869 32.4767 15.689 33.0567 15.5194 33.5538L25.2721 33.6366C28.3251 33.7471 30.5018 34.3823 31.8021 35.5422C32.311 36.0945 32.5654 36.6744 32.5654 37.282C32.5654 37.9448 32.2827 38.4695 31.7173 38.8561C31.2085 39.2427 30.53 39.3532 29.682 39.1875H25.9505C25.2721 39.1875 24.3675 39.1875 23.2367 39.1875C22.1625 39.1323 21.3993 39.1323 20.947 39.1875C20.4947 39.2427 18.1201 39.2704 13.8233 39.2704C13.3145 41.1483 12.947 42.8881 12.7208 44.4898C12.8905 45.1526 12.9753 45.7049 12.9753 46.1468C12.9753 46.5887 12.8622 46.8096 12.636 46.8096C12.8622 48.3561 13.4558 49.5436 14.417 50.3721C14.8127 50.7587 15.4346 50.952 16.2827 50.952L16.9611 50.8692C17.9223 50.9797 19.5053 50.814 21.7102 50.3721C23.9152 49.875 25.3004 49.4331 25.8657 49.0465C26.0353 48.9913 26.3746 48.9084 26.8834 48.798C27.4488 48.6323 27.9293 48.5494 28.3251 48.5494C28.6078 48.3837 29.1449 48.1352 29.9364 47.8038C31.2367 47.2515 32.2261 46.7544 32.9046 46.3125C34.4311 45.7049 35.8445 45.2631 37.1449 44.9869C38.5018 44.6555 39.3781 44.5451 39.7738 44.6555C39.8304 44.6555 39.9152 44.6831 40.0283 44.7384C40.1979 44.7936 40.3392 44.9041 40.4523 45.0698C40.6219 45.2355 40.7067 45.4564 40.7067 45.7326C40.7067 46.2849 40.3392 47.0858 39.6042 48.1352C39.2085 48.6323 38.2191 49.4331 36.636 50.5378C35.053 51.6424 34.1484 52.1948 33.9223 52.1948C33.0742 52.3052 31.9435 52.8023 30.53 53.6861C26.7986 55.7297 23.5194 56.7791 20.6926 56.8343C20.3534 56.9448 19.788 57 18.9965 57C17.3569 57 15.5194 56.5858 13.4841 55.7573C11.4488 54.9288 9.69611 53.9622 8.22615 52.8576C7.71731 52.1395 6.98233 50.7311 6.0212 48.6323C5.06007 46.5334 4.66431 45.3736 4.83392 45.1526C5.00353 44.8765 5.11661 44.5727 5.17314 44.2413C5.22968 43.9099 5.22968 43.6337 5.17314 43.4128C5.11661 43.2471 5.08834 42.9433 5.08834 42.5015C5.08834 41.6177 5.25795 40.4855 5.59717 39.1047C4.69258 38.9942 3.98587 38.8285 3.47703 38.6076C2.68551 38.6076 2.03534 38.4419 1.5265 38.1105C1.01767 37.7791 0.650177 37.3924 0.424028 36.9506C0.141343 36.5087 0 36.1497 0 35.8735C0 34.8794 1.61131 34.2718 4.83392 34.0509C5.34276 33.9404 6.21908 33.8299 7.4629 33.7195C8.31095 31.4549 9.24382 29.2733 10.2615 27.1744C9.35689 27.1744 8.4523 27.0087 7.5477 26.6773C6.75618 26.6221 6.07774 26.4288 5.51237 26.0974C5.00353 25.766 4.66431 25.3794 4.4947 24.9375C4.21201 24.4956 4.07067 24.1642 4.07067 23.9433C4.07067 22.8939 5.68198 22.2863 8.90459 22.1206C10.0353 21.8997 11.3922 21.7616 12.9753 21.7064C14.3887 19.0552 16.3392 16.2384 18.8269 13.2558C21.3145 10.2733 23.8304 7.64971 26.3746 5.38517C28.9187 3.12064 30.9541 1.68459 32.4806 1.07704C34.4594 0.359013 36.0989 0 37.3993 0L38.2473 0.0828485C39.7739 0.303779 41.1873 0.800872 42.4876 1.57413C43.8445 2.34738 44.9753 3.28634 45.8799 4.39099Z" fill="#FFE55E"/>
</g>
<defs>
<filter id="filter0_d_62_258" x="0" y="0" width="51" height="60" filterUnits="userSpaceOnUse" color-interpolation-filters="sRGB">
<feFlood flood-opacity="0" result="BackgroundImageFix"/>
<feColorMatrix in="SourceAlpha" type="matrix" values="0 0 0 0 0 0 0 0 0 0 0 0 0 0 0 0 0 0 127 0" result="hardAlpha"/>
<feOffset dx="3" dy="3"/>
<feComposite in2="hardAlpha" operator="out"/>
<feColorMatrix type="matrix" values="0 0 0 0 0.320833 0 0 0 0 0.288448 0 0 0 0 0.169774 0 0 0 1 0"/>
<feBlend mode="normal" in2="BackgroundImageFix" result="effect1_dropShadow_62_258"/>
<feBlend mode="normal" in="SourceGraphic" in2="effect1_dropShadow_62_258" result="shape"/>
</filter>
</defs>
</svg>
