<svg width="403" height="132" viewBox="0 0 403 132" fill="none" xmlns="http://www.w3.org/2000/svg">
<path d="M403 0H0V71.7507H403V0Z" fill="#FF267E"/>
<path d="M130.707 34.4698H106.723V27.5072H135.737V17.8955H92.8157V53.6931H106.723V44.0814H130.707V34.4698Z" fill="#000055"/>
<path d="M206.938 41.7367L194.212 17.8955H178.246L198.919 53.6931H214.76L235.415 17.8955H219.682L206.938 41.7367Z" fill="#000055"/>
<path d="M279.998 35.5079C283.179 34.2747 285.309 31.2229 285.368 27.8114C285.368 21.9406 280.41 17.8955 270.655 17.8955H239.171V53.6931H271.389C281.86 53.6931 286.513 49.5585 286.513 43.5624C286.442 40.2153 284.419 37.1904 279.998 35.5079ZM252.721 26.5585H268.239C268.416 26.5227 268.597 26.5048 268.778 26.5048C270.281 26.5048 271.516 27.7416 271.516 29.2433C271.516 30.745 270.281 31.9819 268.778 31.9819C268.597 31.9819 268.416 31.964 268.239 31.9282H252.721V26.5585ZM269.367 45.1733H252.721V39.8036H269.367C269.544 39.7678 269.724 39.7499 269.905 39.7499C271.409 39.7499 272.644 40.9867 272.644 42.4884C272.644 43.9901 271.409 45.227 269.905 45.227C269.724 45.227 269.544 45.2091 269.367 45.1733Z" fill="#000055"/>
<path d="M306.951 39.6783H330.9V31.9103H306.951V27.5072H333.423V17.8955H293.044V53.6931H334.05V44.0814H306.951V39.6783Z" fill="#000055"/>
<path d="M339.796 17.8955V27.5072H355.404V53.6931H369.472V27.5072H385.062V17.8955H339.796Z" fill="#000055"/>
<path d="M151.897 17.8955L131.241 53.6931H146.026L148.818 48.4129H170.905L173.697 53.6931H189.09L168.417 17.8955H151.897ZM153.686 39.1235L159.79 27.5967L165.893 39.1235H153.686Z" fill="#000055"/>
<path d="M18.4992 31.9277L30.8314 53.6926H46.6718L34.3217 31.9277H18.4992Z" fill="#000055"/>
<path d="M59.0046 31.9277L46.6724 53.6926H62.4948L74.8271 31.9277H59.0046Z" fill="#000055"/>
<path d="M46.6715 10.2158L34.3214 31.9271H59.0037L46.6715 10.2158Z" fill="#000055"/>
<path d="M177.657 71.1162H0.486084V130.913H177.657V71.1162Z" fill="#000055"/>
<path d="M39.9954 105.307C39.8307 106.515 39.5014 107.592 38.9417 108.604C38.3819 109.615 37.6245 110.464 36.7354 111.182C35.8464 111.933 34.7927 112.487 33.6073 112.879C32.3889 113.303 31.0718 113.499 29.6558 113.499C27.8777 113.499 26.2971 113.205 24.9141 112.618C23.5312 112.063 22.3787 111.247 21.4237 110.137C20.4359 109.06 19.7444 107.788 19.2505 106.254C18.7565 104.72 18.4931 103.022 18.4931 101.129C18.4931 99.2691 18.7565 97.572 19.2834 96.0706C19.8102 94.5693 20.5676 93.2964 21.5554 92.252C22.5104 91.2076 23.6958 90.3917 25.1117 89.8369C26.4947 89.282 28.0423 88.9883 29.7876 88.9883C31.2035 88.9883 32.4877 89.1841 33.6402 89.5431C34.7927 89.9348 35.8135 90.4896 36.7025 91.175C37.5916 91.893 38.316 92.7416 38.8758 93.7207C39.4356 94.7325 39.7978 95.8422 39.9954 97.0824H35.5171C35.2866 96.2665 34.9902 95.5484 34.628 94.9936C34.2329 94.4388 33.8048 94.0145 33.3109 93.6555C32.784 93.2964 32.2572 93.068 31.6645 92.9048C31.0388 92.7742 30.4132 92.709 29.7546 92.709C28.8656 92.709 28.0094 92.8722 27.2521 93.2312C26.4618 93.6228 25.7703 94.145 25.2105 94.8631C24.6507 95.5811 24.1897 96.4623 23.8604 97.5067C23.5312 98.5511 23.3665 99.7587 23.3665 101.129C23.3665 102.533 23.5312 103.806 23.8604 104.85C24.1897 105.927 24.6507 106.841 25.2105 107.559C25.7703 108.31 26.4289 108.865 27.1862 109.224C27.9436 109.583 28.7338 109.778 29.59 109.778C30.2815 109.778 30.973 109.713 31.5986 109.517C32.2243 109.354 32.817 109.093 33.3438 108.734C33.8377 108.408 34.2987 107.918 34.661 107.363C35.0232 106.808 35.3195 106.123 35.5171 105.307H39.9954Z" fill="#FF267E"/>
<path d="M53.034 89.4072H57.7757L66.6993 113.07H61.5954L59.916 108.272H50.6302L48.9509 113.07H44.1433L53.034 89.4072ZM51.9803 104.453H58.566L55.2731 95.1188L51.9803 104.453Z" fill="#FF267E"/>
<path d="M78.4872 102.696C77.5323 102.5 76.6103 102.239 75.7541 101.88C74.8651 101.521 74.1077 101.064 73.4821 100.51C72.8235 99.9547 72.2967 99.3019 71.9344 98.5186C71.5393 97.768 71.3417 96.8541 71.3417 95.8423C71.3417 94.6347 71.6381 93.623 72.2308 92.7418C72.7906 91.8932 73.5479 91.1752 74.4699 90.6203C75.359 90.0655 76.3798 89.6738 77.5323 89.3801C78.6518 89.119 79.7714 88.9884 80.8581 88.9884C82.0764 88.9884 83.2618 89.1516 84.3814 89.5106C85.468 89.8696 86.4559 90.3592 87.312 90.9793C88.1682 91.6321 88.8597 92.4154 89.3865 93.3292C89.8804 94.2431 90.1768 95.2549 90.2427 96.3972H85.6985C85.5998 95.7118 85.4022 95.1243 85.0729 94.6347C84.7436 94.1778 84.3485 93.7862 83.8875 93.4924C83.4265 93.2313 82.8996 93.0029 82.3398 92.8723C81.7801 92.7744 81.2203 92.7091 80.6605 92.7091C80.1007 92.7091 79.5738 92.7744 79.0141 92.8723C78.4543 92.9702 77.9604 93.1334 77.5323 93.3619C77.1042 93.623 76.742 93.9167 76.4786 94.2757C76.1822 94.6674 76.0505 95.1243 76.0505 95.6465C76.0505 96.4625 76.3798 97.1152 77.0054 97.6048C77.6311 98.0943 78.4214 98.4207 79.3763 98.5839L82.5045 99.1387C83.4594 99.3019 84.4473 99.563 85.4351 99.8568C86.39 100.151 87.2791 100.575 88.0694 101.097C88.8267 101.652 89.4524 102.337 89.9463 103.153C90.4402 104.002 90.6707 105.046 90.6707 106.254C90.6707 107.461 90.4073 108.538 89.8475 109.42C89.2877 110.333 88.5304 111.084 87.6413 111.704C86.7193 112.324 85.6656 112.749 84.546 113.042C83.3935 113.369 82.2081 113.499 80.9898 113.499C79.508 113.499 78.1909 113.303 77.0054 112.912C75.7871 112.553 74.7663 111.998 73.8772 111.28C72.9882 110.595 72.2967 109.746 71.7698 108.702C71.243 107.69 70.9137 106.547 70.8149 105.275H75.359C75.4907 106.156 75.7212 106.874 76.0834 107.429C76.4456 108.016 76.8737 108.473 77.4006 108.832C77.8945 109.191 78.4872 109.42 79.1458 109.55C79.7714 109.713 80.4629 109.779 81.1544 109.779C81.6813 109.779 82.241 109.713 82.8008 109.615C83.3606 109.518 83.8545 109.322 84.3485 109.061C84.8095 108.832 85.2046 108.506 85.501 108.049C85.7973 107.625 85.929 107.102 85.929 106.482C85.929 105.993 85.8303 105.536 85.5998 105.177C85.3693 104.818 85.0729 104.524 84.6778 104.263C84.2826 104.034 83.8216 103.806 83.2948 103.643C82.735 103.48 82.1423 103.349 81.5166 103.251L78.4872 102.696Z" fill="#FF267E"/>
<path d="M101.574 89.4072H96.8651V113.07H101.574V89.4072Z" fill="#FF267E"/>
<path d="M123.137 113.07L113.588 95.0209V113.07H109.142V89.4072H115.267L124.816 107.456V89.4072H129.262V113.07H123.137Z" fill="#FF267E"/>
<path d="M140.755 101.228C140.755 102.631 140.953 103.839 141.315 104.916C141.677 105.993 142.138 106.874 142.764 107.592C143.389 108.31 144.114 108.865 144.937 109.224C145.76 109.583 146.649 109.779 147.571 109.779C148.493 109.779 149.382 109.583 150.206 109.224C151.029 108.865 151.753 108.31 152.379 107.592C153.005 106.874 153.498 105.993 153.861 104.916C154.19 103.839 154.387 102.631 154.387 101.228C154.387 99.8241 154.19 98.6165 153.861 97.5395C153.498 96.4951 153.005 95.6139 152.379 94.8958C151.753 94.1778 151.029 93.623 150.206 93.264C149.382 92.905 148.493 92.7091 147.571 92.7091C146.649 92.7091 145.76 92.905 144.937 93.264C144.114 93.623 143.389 94.1778 142.764 94.8958C142.138 95.6139 141.677 96.4951 141.315 97.5395C140.953 98.6165 140.755 99.8241 140.755 101.228ZM159.261 101.228C159.261 103.055 158.997 104.72 158.438 106.221C157.878 107.755 157.121 109.028 156.1 110.105C155.046 111.215 153.828 112.031 152.412 112.618C150.963 113.206 149.349 113.499 147.571 113.499C145.793 113.499 144.18 113.206 142.764 112.618C141.315 112.031 140.097 111.215 139.076 110.105C138.022 109.028 137.265 107.755 136.705 106.221C136.145 104.72 135.882 103.055 135.882 101.228C135.882 99.3998 136.145 97.7353 136.705 96.2014C137.265 94.7 138.022 93.4272 139.076 92.3501C140.097 91.2731 141.315 90.4571 142.764 89.8696C144.18 89.2822 145.793 88.9884 147.571 88.9884C149.349 88.9884 150.963 89.2822 152.412 89.8696C153.828 90.4571 155.046 91.2731 156.1 92.3501C157.121 93.4272 157.878 94.7 158.438 96.2014C158.997 97.7353 159.261 99.3998 159.261 101.228Z" fill="#FF267E"/>
<path fill-rule="evenodd" clip-rule="evenodd" d="M178.139 71.1059C178.139 70.8398 177.923 70.624 177.655 70.624H0.483942C0.215897 70.624 0 70.8398 0 71.1059V130.903C0 131.169 0.215897 131.385 0.483942 131.385H177.655C177.923 131.385 178.139 131.169 178.139 130.903V71.1059ZM177.171 71.5878V130.421H0.967884V71.5878H177.171Z" fill="#FF267E"/>
</svg>
