<svg width="32" height="24" viewBox="0 0 32 24" fill="none" xmlns="http://www.w3.org/2000/svg">
<path d="M31.0624 15.4545V15.0844H30.9699L30.8619 15.3311L30.754 15.0844H30.6615V15.4545H30.7231V15.1769L30.8311 15.4236H30.9082L31.0161 15.1769V15.4545H31.0624ZM30.4456 15.4545V15.146H30.5689V15.0844H30.2605V15.146H30.3839V15.4545H30.4456Z" fill="white"/>
<path d="M20.0976 17.0429H11.7546V2.05334H20.0976V17.0429Z" fill="#D99EC9"/>
<path d="M12.2946 9.54807C12.2946 6.51007 13.7133 3.79592 15.934 2.05331C14.3148 0.773344 12.2637 0.0177002 10.0431 0.0177002C4.7844 0.0177002 0.512695 4.2894 0.512695 9.54807C0.512695 14.8067 4.7844 19.0784 10.0431 19.0784C12.2637 19.0784 14.3148 18.3228 15.934 17.0428C13.7133 15.3002 12.2946 12.5861 12.2946 9.54807Z" fill="#F4CEEA"/>
<path d="M31.3554 9.54807C31.3554 14.8067 27.0837 19.0784 21.825 19.0784C19.6044 19.0784 17.5533 18.3228 15.9341 17.0428C18.1547 15.3002 19.5735 12.5861 19.5735 9.54807C19.5735 6.51007 18.1547 3.79592 15.9341 2.05331C17.5533 0.773344 19.6044 0.0177002 21.825 0.0177002C27.0837 0.0177002 31.3554 4.2894 31.3554 9.54807Z" fill="white"/>
<path d="M22.9047 21.2836C23.0126 21.2836 23.1823 21.2991 23.2902 21.3453L23.1206 21.8696C22.9972 21.8234 22.8892 21.808 22.7813 21.808C22.4266 21.808 22.2416 22.0393 22.2416 22.4557V23.8744H21.6864V21.3453H22.2261V21.6538C22.3803 21.4224 22.5962 21.2836 22.9047 21.2836ZM20.8691 21.8388H19.9746V22.98C19.9746 23.2267 20.0672 23.3964 20.3447 23.3964C20.4835 23.3964 20.6686 23.3501 20.8382 23.2576L20.9924 23.7356C20.8228 23.859 20.5452 23.9361 20.2985 23.9361C19.6508 23.9361 19.4195 23.5814 19.4195 22.9954V21.8388H18.9106V21.3299H19.4195V20.5588H19.9746V21.3299H20.8691V21.8388ZM13.8215 22.3786C13.8832 22.0084 14.0991 21.7617 14.5001 21.7617C14.8548 21.7617 15.0861 21.9776 15.1478 22.3786H13.8215ZM15.7183 22.6099C15.7183 21.8234 15.2249 21.2836 14.5155 21.2836C13.7753 21.2836 13.2509 21.8234 13.2509 22.6099C13.2509 23.4118 13.7907 23.9361 14.5463 23.9361C14.9319 23.9361 15.2711 23.8436 15.5796 23.5814L15.302 23.1805C15.0861 23.3501 14.8239 23.4426 14.5617 23.4426C14.2071 23.4426 13.8832 23.273 13.8061 22.8258H15.6875C15.7029 22.7487 15.7183 22.687 15.7183 22.6099ZM18.1395 21.993C17.9853 21.9005 17.6768 21.7771 17.353 21.7771C17.0446 21.7771 16.8749 21.8851 16.8749 22.0701C16.8749 22.2398 17.06 22.286 17.3067 22.3169L17.5689 22.3477C18.1241 22.4248 18.4479 22.6561 18.4479 23.1034C18.4479 23.5814 18.0315 23.9361 17.2913 23.9361C16.8749 23.9361 16.4894 23.8282 16.1964 23.6123L16.4586 23.1805C16.6436 23.3193 16.9212 23.4426 17.3067 23.4426C17.6769 23.4426 17.8773 23.3347 17.8773 23.1342C17.8773 22.9954 17.7385 22.9183 17.4301 22.872L17.1679 22.8412C16.5974 22.7641 16.2889 22.5019 16.2889 22.101C16.2889 21.5921 16.7053 21.2836 17.3376 21.2836C17.7385 21.2836 18.1086 21.3762 18.3708 21.5458L18.1395 21.993ZM24.9249 21.7925C24.8169 21.7925 24.709 21.808 24.6164 21.8542C24.5239 21.9005 24.4314 21.9468 24.3697 22.0239C24.308 22.101 24.2463 22.1781 24.2001 22.286C24.1538 22.3786 24.1384 22.5019 24.1384 22.6099C24.1384 22.7332 24.1538 22.8412 24.2001 22.9337C24.2463 23.0262 24.2926 23.1188 24.3697 23.1959C24.4468 23.273 24.5239 23.3193 24.6164 23.3655C24.709 23.4118 24.8169 23.4272 24.9249 23.4272C25.0328 23.4272 25.1408 23.4118 25.2333 23.3655C25.3258 23.3193 25.4183 23.273 25.48 23.1959C25.5571 23.1188 25.6034 23.0417 25.6497 22.9337C25.6959 22.8412 25.7113 22.7178 25.7113 22.6099C25.7113 22.4865 25.6959 22.3786 25.6497 22.286C25.6034 22.1935 25.5571 22.101 25.48 22.0239C25.4029 21.9468 25.3258 21.9005 25.2333 21.8542C25.1408 21.8234 25.0328 21.7925 24.9249 21.7925ZM24.9249 21.2836C25.1253 21.2836 25.3104 21.3145 25.4646 21.3916C25.6342 21.4533 25.773 21.5458 25.8964 21.6692C26.0198 21.7925 26.1123 21.9313 26.1894 22.0855C26.2511 22.2552 26.2974 22.4248 26.2974 22.6099C26.2974 22.7949 26.2665 22.98 26.1894 23.1342C26.1277 23.3038 26.0198 23.4426 25.8964 23.5506C25.773 23.6739 25.6342 23.7665 25.4646 23.8282C25.295 23.8898 25.1099 23.9361 24.9249 23.9361C24.7244 23.9361 24.5393 23.9053 24.3851 23.8282C24.2155 23.7665 24.0767 23.6739 23.9533 23.5506C23.83 23.4272 23.7374 23.2884 23.6603 23.1342C23.5986 22.9646 23.5524 22.7949 23.5524 22.6099C23.5524 22.4248 23.5832 22.2398 23.6603 22.0855C23.722 21.9159 23.83 21.7771 23.9533 21.6692C24.0767 21.5458 24.2155 21.4533 24.3851 21.3916C24.5393 21.3145 24.7244 21.2836 24.9249 21.2836ZM10.6139 22.6099C10.6139 22.1627 10.9069 21.7925 11.385 21.7925C11.8476 21.7925 12.1406 22.1472 12.1406 22.6099C12.1406 23.0725 11.8322 23.4118 11.385 23.4118C10.9069 23.4118 10.6139 23.0571 10.6139 22.6099ZM12.6649 22.6099V21.3453H12.1098V21.6538C11.9401 21.4224 11.678 21.2836 11.3079 21.2836C10.5985 21.2836 10.0433 21.8388 10.0433 22.6099C10.0433 23.3809 10.5985 23.9361 11.3079 23.9361C11.6625 23.9361 11.9247 23.7973 12.1098 23.566V23.8744H12.6649V22.6099ZM9.56524 23.8744V22.286C9.56524 21.6846 9.17971 21.2836 8.56286 21.2836C8.23901 21.2836 7.89974 21.3762 7.66842 21.7309C7.49879 21.4533 7.22121 21.2836 6.83567 21.2836C6.57351 21.2836 6.29593 21.3607 6.09545 21.6538V21.3453H5.54028V23.8744H6.09545V22.4711C6.09545 22.0393 6.34219 21.7925 6.7123 21.7925C7.08241 21.7925 7.26747 22.0239 7.26747 22.4557V23.859H7.82264V22.4557C7.82264 22.0239 8.0848 21.7771 8.43949 21.7771C8.8096 21.7771 8.99466 22.0084 8.99466 22.4402V23.8436H9.56524V23.8744Z" fill="white"/>
<path d="M26.8831 23.6739V23.7356H26.9448C26.9602 23.7356 26.9757 23.7356 26.9757 23.7202C26.9911 23.7202 26.9911 23.7047 26.9911 23.6893C26.9911 23.6739 26.9911 23.6739 26.9757 23.6739C26.9757 23.6739 26.9602 23.6585 26.9448 23.6585H26.8831V23.6739ZM26.9448 23.6431C26.9757 23.6431 26.9911 23.6431 27.0065 23.6585C27.0219 23.6739 27.0373 23.6893 27.0373 23.7202C27.0373 23.7356 27.0373 23.751 27.0219 23.7664C27.0065 23.7819 26.9911 23.7819 26.9602 23.7819L27.0373 23.8744H26.9757L26.8986 23.7819H26.8831V23.8744H26.8369V23.6431H26.9448ZM26.9294 23.9515C26.9602 23.9515 26.9757 23.9515 27.0065 23.9361C27.0373 23.9206 27.0528 23.9052 27.0682 23.8898C27.0836 23.8744 27.099 23.859 27.1145 23.8281C27.1299 23.7973 27.1299 23.7819 27.1299 23.751C27.1299 23.7202 27.1299 23.7047 27.1145 23.6739C27.099 23.6431 27.0836 23.6276 27.0682 23.6122C27.0528 23.5968 27.0373 23.5814 27.0065 23.566C26.9911 23.5505 26.9602 23.5505 26.9294 23.5505C26.8986 23.5505 26.8831 23.5505 26.8523 23.566C26.8214 23.5814 26.806 23.5968 26.7906 23.6122C26.7752 23.6276 26.7598 23.6585 26.7443 23.6739C26.7289 23.7047 26.7289 23.7202 26.7289 23.751C26.7289 23.7819 26.7289 23.7973 26.7443 23.8281C26.7598 23.859 26.7752 23.8744 26.7906 23.8898C26.806 23.9052 26.8369 23.9206 26.8523 23.9361C26.8831 23.9515 26.8986 23.9515 26.9294 23.9515ZM26.9294 23.5043C26.9602 23.5043 26.9911 23.5043 27.0219 23.5197C27.0528 23.5351 27.0836 23.5505 27.099 23.566C27.1145 23.5814 27.1453 23.6122 27.1607 23.6431C27.1761 23.6739 27.1761 23.7047 27.1761 23.7356C27.1761 23.7664 27.1761 23.7973 27.1607 23.8281C27.1453 23.859 27.1299 23.8898 27.099 23.9052C27.0682 23.9206 27.0528 23.9515 27.0219 23.9669C26.9911 23.9823 26.9602 23.9823 26.9294 23.9823C26.8986 23.9823 26.8523 23.9823 26.8214 23.9669C26.7906 23.9515 26.7598 23.9361 26.7443 23.9052C26.7289 23.8898 26.6981 23.859 26.6827 23.8281C26.6672 23.7973 26.6672 23.7664 26.6672 23.7356C26.6672 23.7047 26.6672 23.6739 26.6827 23.6431C26.6981 23.6122 26.7135 23.5814 26.7443 23.566C26.7598 23.5505 26.7906 23.5197 26.8214 23.5197C26.8523 23.5043 26.8986 23.5043 26.9294 23.5043Z" fill="white"/>
</svg>
