<svg width="37" height="24" viewBox="0 0 37 24" fill="none" xmlns="http://www.w3.org/2000/svg">
<path d="M33.947 2.90405H3.94702V5.54133H33.947V2.90405Z" fill="white"/>
<path d="M18.0102 8.45223L16.45 15.7075H14.5629L16.1234 8.45223H18.0102ZM25.9493 13.1371L26.9425 10.4126L27.5139 13.1371H25.9493ZM28.0555 15.7075H29.8005L28.2761 8.45223H26.6664C26.3034 8.45223 25.9979 8.66163 25.8625 8.98426L23.0309 15.7075H25.0127L25.4061 14.6241H27.8268L28.0555 15.7075ZM23.1293 13.3389C23.1376 11.4243 20.4682 11.3181 20.4861 10.4627C20.4919 10.2026 20.741 9.92552 21.2862 9.85482C21.5564 9.82018 22.302 9.79226 23.1472 10.1796L23.4779 8.64031C23.0239 8.47713 22.4396 8.31982 21.7127 8.31982C19.8472 8.31982 18.535 9.30546 18.5244 10.7179C18.5123 11.7625 19.4621 12.345 20.1757 12.6926C20.9116 13.048 21.1581 13.2766 21.1548 13.5941C21.1498 14.0809 20.5676 14.2965 20.0262 14.3046C19.0767 14.3194 18.5265 14.0494 18.0879 13.846L17.7454 15.4364C18.1871 15.6375 19.001 15.8124 19.8434 15.8214C21.8265 15.8214 23.1235 14.8474 23.1293 13.3389ZM15.3138 8.45223L12.2563 15.7075H10.2618L8.75705 9.91737C8.66587 9.56124 8.58643 9.43042 8.30918 9.27998C7.85515 9.03479 7.10612 8.80563 6.44727 8.66306L6.49192 8.45223H9.70304C10.112 8.45223 10.48 8.72318 10.5736 9.19167L11.3684 13.3904L13.3314 8.45223H15.3138Z" fill="white"/>
<path d="M33.9475 18.5999H3.94751V21.2374H33.9475V18.5999Z" fill="white"/>
<rect x="1.44702" y="0.5" width="35" height="23" stroke="white"/>
</svg>
