<svg width="25" height="24" viewBox="0 0 25 24" fill="none" xmlns="http://www.w3.org/2000/svg">
<path fill-rule="evenodd" clip-rule="evenodd" d="M20.1188 0.736641H5.73996C3.48995 0.736641 1.66596 2.56063 1.66596 4.81064V19.1895C1.66596 21.4395 3.48995 23.2635 5.73996 23.2635H20.1188C22.3688 23.2635 24.1928 21.4395 24.1928 19.1895V4.81064C24.1928 2.56063 22.3688 0.736641 20.1188 0.736641ZM5.73996 0.0177002C3.09289 0.0177002 0.947021 2.16357 0.947021 4.81064V19.1895C0.947021 21.8365 3.09289 23.9824 5.73996 23.9824H20.1188C22.7659 23.9824 24.9117 21.8365 24.9117 19.1895V4.81064C24.9117 2.16357 22.7659 0.0177002 20.1188 0.0177002H5.73996Z" fill="white"/>
<path fill-rule="evenodd" clip-rule="evenodd" d="M15.4787 6.87467L15.473 6.86787C15.4079 6.79001 15.3536 6.72507 15.3036 6.66483C15.274 6.6291 15.2459 6.59502 15.2181 6.56087C14.638 5.85053 13.952 5.2672 13.0689 4.98733C10.6168 4.21967 7.26689 4.8592 5.79359 7.8894C4.70323 10.1294 4.67958 12.4808 5.35879 14.8355C5.97718 16.9789 7.2973 18.5209 9.54669 19.02C11.8625 19.5336 13.845 18.8817 15.3893 17.0362C15.5129 16.9111 15.643 16.7926 15.779 16.681V19.1335H20.119V5.16941C19.8371 5.16941 19.5569 5.16905 19.278 5.16869H19.2742C18.1607 5.16725 17.0692 5.16584 15.9784 5.1874C15.8657 5.1874 15.69 5.43804 15.6765 5.58415C15.648 5.89673 15.6523 6.21209 15.6574 6.58432V6.58459C15.6596 6.74231 15.6618 6.91024 15.6618 7.09251H15.6607C15.5908 7.00869 15.5312 6.93747 15.4787 6.87467ZM9.68749 11.8839C9.68749 10.2284 10.3633 9.11564 11.6373 8.67729C14.0545 7.84444 16.225 9.57646 15.9446 12.1132C15.9198 12.338 15.8871 12.5628 15.842 12.7775C15.5041 14.4466 14.2043 15.4312 12.5755 15.2682C10.815 15.0929 9.7393 13.9543 9.69425 12.22C9.68834 12.1366 9.68812 12.0525 9.6879 11.9682C9.68784 11.9401 9.68776 11.912 9.68749 11.8839Z" fill="white"/>
</svg>
