<svg width="32" height="24" viewBox="0 0 32 24" fill="none" xmlns="http://www.w3.org/2000/svg">
<path fill-rule="evenodd" clip-rule="evenodd" d="M10.0186 18.231C12.0633 18.231 13.951 17.557 15.471 16.4191C13.5428 14.5853 12.3409 11.9953 12.3409 9.12445C12.3409 6.25339 13.5428 3.66339 15.471 1.82978C13.951 0.691702 12.0633 0.0177002 10.0186 0.0177002C4.98911 0.0177002 0.911865 4.09494 0.911865 9.12445C0.911865 14.1537 4.98911 18.231 10.0186 18.231ZM22.4062 0.0177002C20.3613 0.0177002 18.4738 0.691702 16.9538 1.82978C18.8817 3.66339 20.0837 6.25339 20.0837 9.12445C20.0837 11.9953 18.8817 14.5853 16.9538 16.4191C18.4738 17.557 20.3613 18.231 22.4062 18.231C27.4355 18.231 31.5127 14.1537 31.5127 9.12445C31.5127 4.09494 27.4355 0.0177002 22.4062 0.0177002ZM19.1251 9.12445C19.1251 6.48695 18.0039 4.11133 16.2124 2.44832C14.4207 4.11133 13.2995 6.48695 13.2995 9.12445C13.2995 11.7617 14.4207 14.1373 16.2124 15.8003C18.0039 14.1373 19.1251 11.7617 19.1251 9.12445Z" fill="white"/>
<path d="M5.77921 23.9264V22.2452C5.77921 21.6007 5.38785 21.1804 4.71695 21.1804C4.38149 21.1804 4.01809 21.2925 3.7665 21.6568C3.57082 21.3486 3.29127 21.1804 2.87196 21.1804C2.59241 21.1804 2.31287 21.2645 2.08924 21.5727V21.2365H1.5022V23.9264H2.08924V22.4413C2.08924 21.965 2.34083 21.7408 2.73219 21.7408C3.12355 21.7408 3.31923 21.993 3.31923 22.4413V23.9264H3.90627V22.4413C3.90627 21.965 4.18581 21.7408 4.54922 21.7408C4.94058 21.7408 5.13626 21.993 5.13626 22.4413V23.9264H5.77921ZM14.473 21.2365H13.5226V20.4239H12.9355V21.2365H12.4044V21.7689H12.9355V23.0017C12.9355 23.6181 13.1871 23.9824 13.858 23.9824C14.1096 23.9824 14.3891 23.8983 14.5848 23.7863L14.4171 23.2819C14.2494 23.394 14.0537 23.422 13.9139 23.422C13.6344 23.422 13.5226 23.2539 13.5226 22.9737V21.7689H14.473V21.2365ZM19.4489 21.1804C19.1134 21.1804 18.8898 21.3486 18.75 21.5727V21.2365H18.163V23.9264H18.75V22.4133C18.75 21.965 18.9457 21.7128 19.3091 21.7128C19.4209 21.7128 19.5607 21.7408 19.6725 21.7689L19.8402 21.2085C19.7284 21.1805 19.5607 21.1804 19.4489 21.1804ZM11.9292 21.4606C11.6496 21.2645 11.2583 21.1804 10.8389 21.1804C10.168 21.1804 9.72077 21.5167 9.72077 22.0491C9.72077 22.4974 10.0562 22.7495 10.6433 22.8336L10.9228 22.8616C11.2303 22.9177 11.398 23.0017 11.398 23.1418C11.398 23.338 11.1744 23.4781 10.783 23.4781C10.3917 23.4781 10.0842 23.338 9.8885 23.1979L9.60896 23.6462C9.91645 23.8703 10.3358 23.9824 10.7551 23.9824C11.5378 23.9824 11.9851 23.6182 11.9851 23.1138C11.9851 22.6375 11.6217 22.3853 11.0626 22.3012L10.783 22.2732C10.5314 22.2452 10.3358 22.1892 10.3358 22.021C10.3358 21.8249 10.5314 21.7128 10.8389 21.7128C11.1744 21.7128 11.5099 21.8529 11.6776 21.937L11.9292 21.4606ZM27.5277 21.1804C27.1922 21.1804 26.9686 21.3486 26.8288 21.5727V21.2365H26.2418V23.9264H26.8288V22.4133C26.8288 21.965 27.0245 21.7128 27.3879 21.7128C27.4997 21.7128 27.6395 21.7408 27.7513 21.7689L27.9191 21.2085C27.8072 21.1805 27.6395 21.1804 27.5277 21.1804ZM20.0359 22.5814C20.0359 23.394 20.595 23.9824 21.4616 23.9824C21.853 23.9824 22.1325 23.8984 22.412 23.6742L22.1325 23.1979C21.9089 23.366 21.6852 23.45 21.4336 23.45C20.9584 23.45 20.623 23.1138 20.623 22.5814C20.623 22.0771 20.9584 21.7408 21.4336 21.7128C21.6852 21.7128 21.9089 21.7969 22.1325 21.965L22.412 21.4887C22.1325 21.2645 21.853 21.1804 21.4616 21.1804C20.595 21.1804 20.0359 21.7689 20.0359 22.5814ZM25.4591 22.5814V21.2365H24.872V21.5727C24.6763 21.3206 24.3968 21.1804 24.0334 21.1804C23.2786 21.1804 22.6916 21.7689 22.6916 22.5814C22.6916 23.394 23.2786 23.9824 24.0334 23.9824C24.4248 23.9824 24.7043 23.8423 24.872 23.5901V23.9264H25.4591V22.5814ZM23.3066 22.5814C23.3066 22.1051 23.6141 21.7128 24.1173 21.7128C24.5925 21.7128 24.9279 22.0771 24.9279 22.5814C24.9279 23.0578 24.5925 23.45 24.1173 23.45C23.6141 23.422 23.3066 23.0578 23.3066 22.5814ZM16.29 21.1804C15.5073 21.1804 14.9482 21.7408 14.9482 22.5814C14.9482 23.422 15.5073 23.9824 16.318 23.9824C16.7094 23.9824 17.1007 23.8703 17.4082 23.6182L17.1287 23.1979C16.905 23.366 16.6255 23.4781 16.346 23.4781C15.9825 23.4781 15.6191 23.3099 15.5353 22.8336H17.52C17.52 22.7495 17.52 22.6935 17.52 22.6094C17.548 21.7408 17.0448 21.1804 16.29 21.1804ZM16.29 21.6848C16.6534 21.6848 16.905 21.909 16.9609 22.3293H15.5632C15.6191 21.965 15.8707 21.6848 16.29 21.6848ZM30.8543 22.5814V20.1718H30.2672V21.5727C30.0715 21.3206 29.792 21.1804 29.4286 21.1804C28.6738 21.1804 28.0868 21.7689 28.0868 22.5814C28.0868 23.394 28.6738 23.9824 29.4286 23.9824C29.8199 23.9824 30.0995 23.8423 30.2672 23.5901V23.9264H30.8543V22.5814ZM28.7018 22.5814C28.7018 22.1051 29.0093 21.7128 29.5124 21.7128C29.9877 21.7128 30.3231 22.0771 30.3231 22.5814C30.3231 23.0578 29.9877 23.45 29.5124 23.45C29.0093 23.422 28.7018 23.0578 28.7018 22.5814ZM9.07783 22.5814V21.2365H8.49078V21.5727C8.2951 21.3206 8.01556 21.1804 7.65215 21.1804C6.89739 21.1804 6.31034 21.7689 6.31034 22.5814C6.31034 23.394 6.89739 23.9824 7.65215 23.9824C8.04351 23.9824 8.32306 23.8423 8.49078 23.5901V23.9264H9.07783V22.5814ZM6.89738 22.5814C6.89738 22.1051 7.20488 21.7128 7.70806 21.7128C8.18328 21.7128 8.51874 22.0771 8.51874 22.5814C8.51874 23.0578 8.18328 23.45 7.70806 23.45C7.20488 23.422 6.89738 23.0578 6.89738 22.5814Z" fill="white"/>
</svg>
