<svg width="69" height="60" viewBox="0 0 69 60" fill="none" xmlns="http://www.w3.org/2000/svg">
<path d="M34.2447 56.8577C51.7329 56.8577 65.91 44.706 65.91 29.7161C65.91 14.7261 51.7329 2.57436 34.2447 2.57436C16.7564 2.57436 2.57935 14.7261 2.57935 29.7161C2.57935 44.706 16.7564 56.8577 34.2447 56.8577Z" stroke="#FF267E" stroke-width="4.52362" stroke-linecap="round" stroke-linejoin="round"/>
<path fill-rule="evenodd" clip-rule="evenodd" d="M34.2447 2.57436C51.7332 2.57436 65.91 14.7258 65.91 29.7145C65.91 44.7032 51.7332 56.8546 34.2447 56.8546C16.7561 56.8546 2.57935 44.7068 2.57935 29.7161C2.57935 14.7253 16.7566 2.57591 34.2447 2.57591" fill="#000055"/>
<path d="M31.7372 42.3279V32.3249H21.542V27.3231H31.7372V17.275H36.8116V27.3231H46.9613V32.3249H36.8116V42.3279H31.7372Z" fill="#FF267E"/>
</svg>
